C:\Users\israe\Dropbox\PhDWork\ExperimentalData\subject1\145\P1S145W08_filtered35.mot
nRows=13
nColumns=28

name C:\Users\israe\Dropbox\PhDWork\ExperimentalData\subject1\145\P1S145W08_filtered35.mot
datacolumns 28
datarows 13
range 0.4750000000 0.4870000000
endheader
time	ground_force_1_vx	ground_force_1_vy	ground_force_1_vz	ground_force_1_px	ground_force_1_py	ground_force_1_pz	ground_moment_1_mx	ground_moment_1_my	ground_moment_1_mz	ground_force_2_vx	ground_force_2_vy	ground_force_2_vz	ground_force_2_px	ground_force_2_py	ground_force_2_pz	ground_moment_2_mx	ground_moment_2_my	ground_moment_2_mz	ground_force_3_vx	ground_force_3_vy	ground_force_3_vz	ground_force_3_px	ground_force_3_py	ground_force_3_pz	ground_moment_3_mx	ground_moment_3_my	ground_moment_3_mz
        0.4750000000	        0.0000000000	        0.0000000000	        0.0000000000	        0.2000000000	        0.0000000000	       -0.9030000000	       -0.0000000000	        0.0000000000	        0.0000000000	       -0.0000000017	        0.0000000876	        0.0000000134	        0.2000000000	        0.0000000000	       -0.3000000000	       -0.0000000063	        0.0000000006	        0.0000000015	       27.0283473594	      593.3230540957	      -34.4857122394	        0.2000000000	       -0.0000000000	        0.3030000000	      -47.3376255724	       -3.6563693812	      -57.3968585587	
        0.4760000000	        0.0000000000	        0.0000000000	        0.0000000000	        0.2000000000	        0.0000000000	       -0.9030000000	       -0.0000000000	        0.0000000000	        0.0000000000	       -0.0000000004	        0.0000001284	        0.0000000046	        0.2000000000	        0.0000000000	       -0.3000000000	       -0.0000000086	        0.0000000011	        0.0000000022	       27.3057676300	      599.1035940848	      -35.7227698856	        0.2000000000	       -0.0000000000	        0.3030000000	      -47.5266068930	       -3.7705428565	      -57.9343545650	
        0.4770000000	        0.0000000000	        0.0000000000	        0.0000000000	        0.2000000000	        0.0000000000	       -0.9030000000	       -0.0000000000	        0.0000000000	        0.0000000000	        0.0000000015	        0.0000001766	       -0.0000000087	        0.2000000000	        0.0000000000	       -0.3000000000	       -0.0000000112	        0.0000000017	        0.0000000030	       27.5917051161	      604.9661005512	      -36.9782408130	        0.2000000000	       -0.0000000000	        0.3030000000	      -47.7171534640	       -3.8863809176	      -58.4722276863	
        0.4780000000	        0.0000000000	        0.0000000000	        0.0000000000	        0.2000000000	        0.0000000000	       -0.9030000000	       -0.0000000000	        0.0000000000	        0.0000000000	        0.0000000042	        0.0000002313	       -0.0000000275	        0.2000000000	        0.0000000000	       -0.3000000000	       -0.0000000140	        0.0000000025	        0.0000000039	       27.8876284694	      610.9015005340	      -38.2487938859	        0.2000000000	       -0.0000000000	        0.3030000000	      -47.9080867659	       -4.0040435838	      -59.0096965769	
        0.4790000000	        0.0000000000	        0.0000000000	        0.0000000000	        0.2000000000	        0.0000000000	       -0.9030000000	       -0.0000000000	        0.0000000000	        0.0000000000	        0.0000000078	        0.0000002906	       -0.0000000527	        0.2000000000	        0.0000000000	       -0.3000000000	       -0.0000000169	        0.0000000034	        0.0000000048	       28.1939203368	      616.8965792067	      -39.5317137649	        0.2000000000	       -0.0000000000	        0.3030000000	      -48.0977796794	       -4.1235916400	      -59.5466524851	
        0.4800000000	        0.0000000000	        0.0000000000	        0.0000000000	        0.2000000000	        0.0000000000	       -0.9030000000	       -0.0000000000	        0.0000000000	        0.0000000000	        0.0000000123	        0.0000003512	       -0.0000000849	        0.2000000000	        0.0000000000	       -0.3000000000	       -0.0000000195	        0.0000000043	        0.0000000058	       28.5099128944	      622.9356351283	      -40.8245832641	        0.2000000000	       -0.0000000000	        0.3030000000	      -48.2846152479	       -4.2450164048	      -60.0835796833	
        0.4810000000	        0.0000000000	        0.0000000000	        0.0000000000	        0.2000000000	        0.0000000000	       -0.9030000000	       -0.0000000000	        0.0000000000	        0.0000000000	        0.0000000178	        0.0000004079	       -0.0000001245	        0.2000000000	        0.0000000000	       -0.3000000000	       -0.0000000215	        0.0000000054	        0.0000000067	       28.8338664061	      629.0027793767	      -42.1253229628	        0.2000000000	       -0.0000000000	        0.3030000000	      -48.4674775224	       -4.3682712591	      -60.6211778104	
        0.4820000000	        0.0000000000	        0.0000000000	        0.0000000000	        0.2000000000	        0.0000000000	       -0.9030000000	       -0.0000000000	        0.0000000000	        0.0000000000	        0.0000000244	        0.0000004539	       -0.0000001714	        0.2000000000	        0.0000000000	       -0.3000000000	       -0.0000000226	        0.0000000065	        0.0000000074	       29.1628947361	      635.0848400499	      -43.4326019459	        0.2000000000	       -0.0000000000	        0.3030000000	      -48.6458333890	       -4.4932861863	      -61.1599588127	
        0.4830000000	        0.0000000000	        0.0000000000	        0.0000000000	        0.2000000000	        0.0000000000	       -0.9030000000	       -0.0000000000	        0.0000000000	        0.0000000000	        0.0000000317	        0.0000004797	       -0.0000002247	        0.2000000000	        0.0000000000	       -0.3000000000	       -0.0000000221	        0.0000000075	        0.0000000077	       29.4936767996	      641.1726230921	      -44.7456176671	        0.2000000000	       -0.0000000000	        0.3030000000	      -48.8196111681	       -4.6199468402	      -61.7001274166	
        0.4840000000	        0.0000000000	        0.0000000000	        0.0000000000	        0.2000000000	        0.0000000000	       -0.9030000000	       -0.0000000000	       -0.0000000000	        0.0000000000	        0.0000000396	        0.0000004734	       -0.0000002825	        0.2000000000	        0.0000000000	       -0.3000000000	       -0.0000000193	        0.0000000082	        0.0000000075	       29.8235695950	      647.2597426213	      -46.0633453510	        0.2000000000	       -0.0000000000	        0.3030000000	      -48.9891788108	       -4.7480386054	      -62.2416801531	
        0.4850000000	        0.0000000000	        0.0000000000	        0.0000000000	        0.2000000000	        0.0000000000	       -0.9030000000	       -0.0000000000	       -0.0000000000	       -0.0000000000	        0.0000000476	        0.0000004204	       -0.0000003415	        0.2000000000	        0.0000000000	       -0.3000000000	       -0.0000000133	        0.0000000086	        0.0000000065	       30.1509724987	      653.3421466148	      -47.3842152166	        0.2000000000	       -0.0000000000	        0.3030000000	      -49.1553224003	       -4.8772001290	      -62.7843971547	
        0.4860000000	        0.0000000000	        0.0000000000	        0.0000000000	        0.2000000000	        0.0000000000	       -0.9030000000	        0.0000000000	       -0.0000000000	       -0.0000000000	        0.0000000550	        0.0000003036	       -0.0000003969	        0.2000000000	        0.0000000000	       -0.3000000000	       -0.0000000034	        0.0000000083	        0.0000000044	       30.4748036082	      659.4182535448	      -48.7061630089	        0.2000000000	       -0.0000000000	        0.3030000000	      -49.3191355342	       -5.0069438352	      -63.3277018360	
        0.4870000000	       -0.0000000000	        0.0000000000	        0.0000000000	        0.2000000000	        0.0000000000	       -0.9030000000	        0.0000000000	       -0.0000000000	       -0.0000000000	        0.0000000607	        0.0000001033	       -0.0000004419	        0.2000000000	        0.0000000000	       -0.3000000000	        0.0000000116	        0.0000000071	        0.0000000009	       30.7940196866	      665.4856716123	      -50.0266944688	        0.2000000000	       -0.0000000000	        0.3030000000	      -49.4819400814	       -5.1367516933	      -63.8706521002	
